# xmcd
#
# Track frame offsets: 
#        150
#        16559
#        38137
#        54460
#        73617
#        90791
#        112904
#        131567
#        145012
#        164700
#        177774
#        193944
#
# Disc length: 2873 seconds
#
# Revision: 2
# Processed by: cddbd v1.5.2PL0 Copyright (c) Steve Scherf et al.
# Submitted via: ExactAudioCopyFreeDBPlugin 1.0
#
DISCID=960b370c
DTITLE=Jimmy Barnes - Out in the Blue
DYEAR=2007
DGENRE=Blues
TTITLE0=I Can't Tell You
TTITLE1=Out In The Blue
TTITLE2=You And Me
TTITLE3=Blue Hotel
TTITLE4=When Two Hearts Collide
TTITLE5=Red Light
TTITLE6=Everything Is Changing
TTITLE7=Better Off Alone
TTITLE8=Water Wash All Over Me
TTITLE9=I'm Surprised
TTITLE10=Losing You
TTITLE11=Forgiveness
EXTD=YEAR: 2007
EXTT0=
EXTT1=
EXTT2=
EXTT3=
EXTT4=
EXTT5=
EXTT6=
EXTT7=
EXTT8=
EXTT9=
EXTT10=
EXTT11=
PLAYORDER=
